<svg xmlns:xlink="http://www.w3.org/1999/xlink" width="89" viewBox="0 0 89 40" fill="none" xmlns="http://www.w3.org/2000/svg" height="40"><path fill="#252AFF" fill-rule="evenodd" clip-rule="evenodd" d="M77.8491 0.0414528C75.1169 0.0421336 72.4967 1.12783 70.5647 3.05984C68.6327 4.99185 67.547 7.61203 67.5463 10.3443V14.4711C67.589 17.1757 68.6934 19.7552 70.6211 21.6527C72.5489 23.5503 75.1454 24.6138 77.8504 24.6138C80.5554 24.6138 83.1519 23.5503 85.0797 21.6527C87.0075 19.7552 88.1118 17.1757 88.1545 14.4711V10.3443C88.1539 7.61158 87.0678 4.99102 85.1352 3.05893C83.2027 1.12685 80.5819 0.0414528 77.8491 0.0414528ZM83.0005 14.4711C82.9705 15.8178 82.4144 17.0991 81.4514 18.0409C80.4883 18.9827 79.1948 19.51 77.8478 19.51C76.5008 19.51 75.2074 18.9827 74.2443 18.0409C73.2813 17.0991 72.7252 15.8178 72.6951 14.4711V10.3443C72.7252 8.99764 73.2813 7.71625 74.2443 6.77447C75.2074 5.83268 76.5008 5.30535 77.8478 5.30535C79.1948 5.30535 80.4883 5.83268 81.4514 6.77447C82.4144 7.71625 82.9705 8.99764 83.0005 10.3443V14.4711ZM17.9375 1.20476H13.405C13.3253 1.2061 13.2492 1.23853 13.1931 1.29514C13.137 1.35176 13.1052 1.42806 13.1045 1.50779V14.3915C13.1045 17.1752 10.8267 19.5737 8.04039 19.6225C7.31512 19.6358 6.59527 19.4953 5.92823 19.2102C5.26119 18.9252 4.6621 18.502 4.17041 17.9687C4.11688 17.9106 4.04305 17.8752 3.96419 17.87C3.88533 17.8647 3.80746 17.8899 3.74668 17.9405L0.264466 20.8526C0.232787 20.8794 0.206805 20.9123 0.188052 20.9494C0.1693 20.9864 0.158159 21.0268 0.155286 21.0682C0.152413 21.1096 0.157867 21.1512 0.171326 21.1905C0.184786 21.2297 0.205977 21.2659 0.233649 21.2969C1.2167 22.4191 2.43406 23.3119 3.79983 23.9122C5.1656 24.5126 6.64649 24.8058 8.13798 24.7714C13.6951 24.6507 18.2405 19.869 18.2405 14.3016V1.50779C18.2399 1.42763 18.2077 1.35094 18.151 1.29426C18.0943 1.23757 18.0177 1.20543 17.9375 1.20476ZM54.6112 0.0414528C52.4229 0.0573846 50.2969 0.771753 48.543 2.08045L46.6658 0.388134C46.4059 0.155902 46.0666 0.0326715 45.7182 0.0440204C45.3603 0.0619162 45.0233 0.217636 44.7777 0.478544C44.5321 0.739452 44.3971 1.08529 44.4008 1.44358V22.2239C44.4043 22.7132 44.5487 23.1911 44.8168 23.6004C45.1865 24.1719 45.768 24.5732 46.4335 24.7162C47.0989 24.8593 47.794 24.7322 48.3658 24.3631L54.7422 20.2234C54.7764 20.2013 54.8059 20.1726 54.829 20.1391C54.8521 20.1055 54.8683 20.0676 54.8766 20.0278C54.885 19.9879 54.8854 19.9467 54.8777 19.9067C54.8701 19.8667 54.8545 19.8286 54.8321 19.7946L52.3642 15.9939C52.3423 15.9598 52.3139 15.9304 52.2806 15.9073C52.2473 15.8842 52.2098 15.8679 52.1702 15.8593C52.1306 15.8507 52.0897 15.85 52.0499 15.8572C52.01 15.8645 51.972 15.8795 51.9379 15.9015L49.5368 17.4603V10.4316C49.5295 9.07174 50.0539 7.76283 50.998 6.78412C51.9422 5.80541 53.2314 5.23439 54.5907 5.19288C55.2753 5.18061 55.9555 5.30473 56.5916 5.55802C57.2277 5.81131 57.8071 6.18869 58.2959 6.66817C58.7847 7.14765 59.1732 7.71963 59.4386 8.35077C59.7041 8.98192 59.8413 9.65959 59.8423 10.3443V23.305C59.8423 23.3868 59.8747 23.4651 59.9325 23.5229C59.9903 23.5807 60.0687 23.6132 60.1504 23.6132H64.6855C64.7672 23.6132 64.8456 23.5807 64.9034 23.5229C64.9612 23.4651 64.9937 23.3868 64.9937 23.305V10.465C64.9937 4.75888 60.3199 0.00036471 54.6112 0.0414528ZM41.2036 1.21503C41.0212 0.929668 40.784 0.683224 40.5059 0.489894C40.2278 0.296564 39.9141 0.160167 39.5831 0.0885587C39.252 0.0169507 38.91 0.0115461 38.5769 0.0726566C38.2437 0.133767 37.9259 0.260185 37.6418 0.44463L31.2655 4.5894C31.2314 4.61129 31.2019 4.63969 31.1788 4.67298C31.1557 4.70626 31.1394 4.74377 31.1308 4.78337C31.1222 4.82296 31.1216 4.86386 31.1288 4.90373C31.136 4.94359 31.1511 4.98163 31.173 5.01568L33.6486 8.82918C33.6932 8.8976 33.7632 8.94551 33.8431 8.96236C33.923 8.97922 34.0064 8.96364 34.0749 8.91906L36.4734 7.36028V14.3838C36.4791 15.0603 36.3515 15.7313 36.098 16.3585C35.8444 16.9857 35.4697 17.5568 34.9954 18.0392C34.5211 18.5216 33.9565 18.9058 33.3337 19.17C32.7108 19.4342 32.0421 19.5731 31.3656 19.5789C30.6891 19.5846 30.0181 19.457 29.3909 19.2034C28.7637 18.9498 28.1926 18.5752 27.7102 18.1009C27.2278 17.6266 26.8435 17.0619 26.5794 16.4391C26.3152 15.8163 26.1763 15.1476 26.1705 14.4711V1.50779C26.1705 1.4671 26.1625 1.42682 26.1468 1.38926C26.1312 1.35171 26.1083 1.31762 26.0794 1.28897C26.0505 1.26032 26.0162 1.23768 25.9785 1.22234C25.9408 1.20701 25.9005 1.19928 25.8598 1.19962H21.3221C21.2404 1.19962 21.162 1.23209 21.1042 1.28988C21.0464 1.34767 21.014 1.42606 21.014 1.50779V14.3478C21.014 20.0591 25.6852 24.8202 31.3964 24.7765C34.114 24.7535 36.7123 23.6574 38.6253 21.7271C40.5382 19.7968 41.6108 17.1887 41.6094 14.4711V2.59405C41.6093 2.10496 41.4685 1.62622 41.2036 1.21503Z"></path><path fill="#252AFF" d="M44.1775 32.4086L43.8205 34.4014H47.3541L47.0357 36.1168H43.5226L43.1503 38.202H47.069L46.7634 39.956H41.0111L42.6367 30.6547H48.3248L48.0295 32.4086H44.1775Z"></path><path fill="#252AFF" d="M55.8542 35.1846C56.4654 35.6109 56.8223 36.3402 56.6913 37.3238C56.4782 38.8132 55.2943 39.956 53.222 39.956H49.3699L51.0032 30.6547H54.5239C56.1187 30.6547 57.2743 31.7589 57.0226 33.3382C56.9693 33.7111 56.8377 34.0684 56.6363 34.3867C56.4349 34.7049 56.1683 34.9769 55.8542 35.1846ZM53.9667 36.05H51.9123L51.5219 38.2303H53.5558C53.8738 38.2364 54.1836 38.1288 54.4294 37.9268C54.6751 37.7249 54.8407 37.4418 54.8963 37.1286C54.9309 36.9932 54.9324 36.8513 54.9004 36.7152C54.8685 36.5791 54.8041 36.4527 54.7129 36.3468C54.6216 36.2409 54.5061 36.1586 54.3762 36.1069C54.2462 36.0553 54.1058 36.0358 53.9667 36.05ZM52.544 32.3701L52.187 34.4245H53.9847C54.2773 34.4267 54.5611 34.3244 54.7852 34.1362C55.0092 33.9479 55.1588 33.6859 55.207 33.3973C55.3149 32.8529 55.0093 32.3701 54.3313 32.3701H52.544Z"></path><path fill="#252AFF" d="M64.5032 38.2816H60.7822L59.9193 39.956H57.9137L62.816 30.6547H65.0887L66.722 39.956H64.742L64.5032 38.2816ZM64.2464 36.5688L63.6943 32.6885L61.6733 36.5688H64.2464Z"></path><path fill="#252AFF" d="M70.5894 30.6547H71.971L74.9602 36.4609L75.972 30.6547H77.8184L76.1825 39.956H74.7881L71.8118 34.1497L70.7846 39.956H68.951L70.5894 30.6547Z"></path><path fill="#252AFF" d="M84.2769 35.2642L86.3082 39.956H84.3282L83.0134 36.9129L80.7022 39.956H78.522L82.2302 35.0922L80.317 30.6547H82.2841L83.4911 33.4461L85.6174 30.6547H87.7848L84.2769 35.2642Z"></path><path fill="#252AFF" d="M26.6919 35.3233C26.5752 36.0433 26.2069 36.6985 25.6525 37.1725C25.0981 37.6465 24.3936 37.9085 23.6642 37.9118C23.2801 37.9211 22.902 37.815 22.5788 37.6072C22.2556 37.3993 22.0021 37.0993 21.8512 36.7459L21.6714 37.7937H21.014L22.239 30.819H22.8964L22.3828 33.7183C22.6485 33.3942 22.9833 33.1337 23.3628 32.956C23.7423 32.7782 24.1568 32.6877 24.5759 32.6911C25.9446 32.6911 26.9513 33.8467 26.6919 35.3233ZM24.4218 33.3305C23.869 33.3452 23.3381 33.549 22.9174 33.9079C22.4968 34.2669 22.212 34.7592 22.1106 35.3027C21.9205 36.407 22.6242 37.275 23.7233 37.275C24.2834 37.258 24.8202 37.0468 25.2418 36.6777C25.6634 36.3085 25.9436 35.8043 26.0345 35.2514C26.2348 34.1471 25.526 33.3305 24.4218 33.3305Z"></path><path fill="#252AFF" d="M33.456 32.8118L30.3743 38.2508C29.7863 39.278 28.9799 39.8558 28.0914 39.7916L28.2018 39.1727C28.8284 39.2421 29.2984 38.8132 29.7067 38.1455L29.9147 37.7989L28.5819 32.8272H29.247L30.3538 37.0618L32.7241 32.8272L33.456 32.8118Z"></path></svg>